<svg xmlns="http://www.w3.org/2000/svg" xmlns:xlink="http://www.w3.org/1999/xlink" version="1.1" x="0px" y="0px" viewBox="0 0 100 100" enable-background="new 0 0 100 100" xml:space="preserve"><g><path d="M85.105,45.284v-3.301c0-0.236-0.148-0.448-0.371-0.528c-0.047-0.018-0.898-0.321-2.21-0.477v-1.092h-2.95v1.092   c-0.072,0.009-0.14,0.02-0.211,0.03v-1.141c-0.497-0.028-1.471-0.094-2.152-0.188c-0.494-0.068-1.275-0.064-2.184,0.022   c0.001-0.004,0.002-0.01,0.004-0.016l0.066-0.348l0.025-0.177c0.011-0.046,0.006-0.189-0.005-0.24   c-0.02-0.148-0.064-0.294-0.139-0.434l-0.064-0.101l-0.017-0.025c-0.015-0.016,0.02,0.019-0.034-0.039l-0.007-0.008l-0.029-0.031   c-0.025-0.035-0.094-0.095-0.171-0.149c-0.263-0.181-0.46-0.261-0.714-0.356c0,0-0.001,0.001-0.002,0   c0.008-0.037,0.029-0.07,0.029-0.11v-1.625c0-0.06-0.012-0.115-0.029-0.169c0.479,0.042,1.059,0.105,1.655,0.201   c1.401,0.225,3.526,0.575,4.803,0.625c1.276,0.049,5.253-0.024,5.478-0.175c0.226-0.15,0.426-0.701,0.426-0.701   s-7.504-1.2-8.93-1.425c-1.427-0.225-4.527,0-4.527,0v0.98c-0.071-0.009-0.143-0.018-0.223-0.025v-0.426H70.39v0.442   c-0.111,0.013-0.214,0.026-0.306,0.04v-1.111l-2.177-0.25c0,0-2.927-0.201-5.228-0.25c-2.302-0.05-3.547,0-3.547,0   s0.494,0.274,1.393,0.5c0.896,0.227,4.005,0.8,5.33,0.875c1.027,0.058,2.996,0.225,3.832,0.297   c-0.055,0.011-0.096,0.019-0.102,0.02c-0.263,0.054-0.451,0.283-0.451,0.551v1.314c-0.08-0.054-0.172-0.099-0.275-0.104   c-3.184-0.195-6.379-0.408-9.54-0.732c-0.784-0.085-1.585-0.173-2.324-0.315c-0.171-0.038-0.374-0.083-0.437-0.121   c-0.146-0.077-0.432-0.199-0.637-0.255c-0.426-0.13-0.837-0.21-1.248-0.28c-1.639-0.25-3.254-0.307-4.875-0.308   c-1.621,0.013-3.236,0.083-4.869,0.335c-0.41,0.065-0.82,0.146-1.24,0.266c-0.21,0.06-0.426,0.136-0.65,0.238   c0.031-0.016-0.075,0.029-0.1,0.034l-0.082,0.019l-0.256,0.054c-0.748,0.134-1.548,0.219-2.334,0.305   c-3.164,0.323-6.357,0.549-9.541,0.76c-0.035,0.002-0.069,0.021-0.104,0.031v-1.241c0-0.268-0.188-0.498-0.45-0.551   c-0.023-0.004-0.367-0.073-0.851-0.126v-0.852h-2.233v0.844c-0.521,0.057-0.848,0.133-0.868,0.139   c-0.254,0.059-0.433,0.287-0.433,0.547v1.455c-0.205,0.137-0.401,0.273-0.599,0.423c-0.101,0.078-0.2,0.153-0.304,0.247   c-0.105,0.089-0.232,0.23-0.293,0.37c-0.085,0.173-0.113,0.313-0.125,0.479c0,0.114,0.008,0.187,0.018,0.251   c-0.822-0.068-1.527-0.068-1.984-0.004c-0.682,0.095-1.655,0.161-2.152,0.189v1.55c-0.072-0.01-0.138-0.021-0.211-0.03V39.47h-2.95   v1.514c-1.284,0.157-2.118,0.454-2.165,0.47c-0.222,0.08-0.369,0.292-0.369,0.528v3.156c-0.408,0.31-0.753,0.713-0.93,1.243   c-0.061,0.317-0.174,0.65-0.148,1.022c0.021,0.36,0.16,0.738,0.406,1.022c0.461,0.584,1.232,0.813,1.875,0.97   c0.328,0.103,0.678,0.133,1.021,0.195c0.35,0.068,0.688,0.098,1.014,0.106l0.496,0.026c0.097,0.001,0.134,0.016,0.279,0.007   l0.254-0.017l1.021-0.07c0.679-0.046,1.382-0.085,2.013-0.253l0.973-0.197c0.175-0.033,0.296-0.065,0.516-0.097l0.446-0.05   c0.566-0.086,1.256-0.108,1.903-0.148c1.314-0.076,2.6-0.122,3.927-0.122l0.992,0.002l0.894,0.122   c0.302,0.02,0.61,0.136,0.915,0.21c0.304,0.077,0.611,0.165,0.93,0.28l0.944,0.315c0.255,0.118,0.777,0.191,1.134,0.18   c0.691-0.008,1.357-0.049,2.023-0.093c1.242-0.088,2.475-0.203,3.711-0.326c0.189,0.198,0.406,0.477,0.613,0.753l0.365,0.478   c0.092,0.169,0.189,0.318,0.279,0.521c0.178,0.371,0.381,0.805,0.641,1.22c0.201,0.273,0.426,0.546,0.719,0.771h-3.057v0.862h0.063   c-0.295,0.242-0.495,0.595-0.495,1.005s0.199,0.763,0.494,1.005h-0.063v0.862h3.201l1.597-1.779h2.34v1.692h-1.687v4.469h-1.368   v2.296H42.97v-0.729h-4.296v5.343h4.296v-0.729h1.936v3.893h14.056V61.326h-6.263v-4.469h-1.688v-1.692h2.888l1.596,1.779h3.111   v-0.862h-0.063c0.295-0.242,0.494-0.595,0.494-1.005s-0.2-0.763-0.494-1.005h0.291v-0.862h-3.123   c0.287-0.222,0.524-0.5,0.717-0.771c0.258-0.409,0.471-0.866,0.633-1.204c0.075-0.175,0.195-0.37,0.301-0.559l0.355-0.461   c0.203-0.267,0.409-0.528,0.623-0.747c1.232,0.122,2.459,0.237,3.698,0.325c0.667,0.042,1.313,0.09,2.083,0.09   c0.191,0.007,0.337-0.02,0.508-0.028c0.301-0.028,0.369-0.1,0.566-0.149l0.953-0.317c0.313-0.113,0.611-0.198,0.9-0.271   c0.301-0.072,0.566-0.185,0.91-0.212l0.936-0.125l0.973-0.002c1.283-0.001,2.649,0.048,3.906,0.12   c0.639,0.042,1.264,0.05,1.93,0.152l0.492,0.061c0.047-0.011,0.307,0.057,0.449,0.081l1.021,0.208   c0.691,0.174,1.331,0.213,1.998,0.256l0.99,0.066l0.248,0.017c0.124,0.011,0.184-0.004,0.279-0.005l0.521-0.026   c0.347-0.009,0.689-0.041,1.025-0.108c0.341-0.063,0.665-0.089,1.022-0.199c0.343-0.1,0.711-0.17,0.993-0.324l0.226-0.102   c0.149-0.072,0.16-0.109,0.246-0.165c0.139-0.112,0.277-0.23,0.396-0.376c0.246-0.287,0.389-0.662,0.408-1.038   c0.024-0.323-0.086-0.708-0.152-1.025C85.717,45.928,85.436,45.573,85.105,45.284z M42.322,67.589h-3.001v-4.05h3.001V67.589z    M44.905,66.859h-1.799v-2.591h1.799V66.859z M78.021,42.411c0.591-0.149,1.768-0.401,2.979-0.401c1.351,0,2.438,0.24,2.979,0.389   v3.032c-0.489,0.231-1.594,0.666-2.979,0.666c-1.22,0-2.403-0.311-2.979-0.487V42.411z M73.482,38.259   c0.024-0.011,0.045-0.021,0.065-0.031l-0.091,0.119c-0.002,0.003,0.006,0.049-0.002,0.04   C73.455,38.386,73.434,38.344,73.482,38.259z M70.26,36.518c0.693-0.099,1.995-0.091,2.586-0.006v0.799   c-0.275,0.112-0.738,0.256-1.293,0.256c-0.492,0-0.977-0.103-1.293-0.189V36.518z M68.648,38.363   c0.074,0.043,0.144,0.079,0.219,0.122c0.12,0.066,0.249,0.11,0.375,0.165c0.268,0.119,0.463,0.154,0.688,0.226l0.165,0.047   c0.111,0.033,0.143,0.033,0.217,0.049c0.131,0.029,0.251,0.042,0.375,0.061c0.244,0.034,0.482,0.062,0.719,0.079   c0.475,0.046,0.944,0.01,1.414-0.025c0.235-0.019,0.468-0.041,0.712-0.072l0.189-0.029c0.013-0.001,0.126-0.021,0.183-0.04   l0.084-0.029l0.02-0.009l0.01-0.003l0.006-0.002c0.174-0.11,0.051-0.033,0.091-0.059l0.005-0.004l0.009-0.009   c0.036-0.037,0.057-0.071,0.08-0.106c0.01,0.004,0.026,0.009,0.036,0.013c0.016,0.004,0.041,0.007,0.092,0.054l0.033,0.026   l0.007,0.006l0.021,0.022c0.04,0.053,0.074,0.118,0.096,0.19c0.01,0.058,0.02,0.026,0.02,0.091v0.158l-0.014,0.317   c-0.005,0.053-0.014,0.105-0.02,0.158c-0.69,0.085-1.433,0.217-2.167,0.397c-0.823,0.202-1.972,0.586-3.027,0.962   c-0.094-0.033-0.187-0.064-0.282-0.097c0.051-0.298,0.104-0.856-0.035-1.553c-0.093-0.46-0.238-0.819-0.401-1.111   C68.594,38.36,68.621,38.362,68.648,38.363z M66.944,38.25c0.04,0.036,0.081,0.074,0.132,0.098   c0.023,0.011,0.576,0.287,0.787,1.341c0.08,0.4,0.074,0.733,0.053,0.963c-0.197-0.064-0.39-0.138-0.587-0.2   c-0.118-0.037-0.237-0.071-0.356-0.107c-0.003-0.223-0.027-0.499-0.103-0.875c-0.108-0.541-0.291-0.944-0.489-1.256   C66.568,38.225,66.756,38.238,66.944,38.25z M31.798,39.688c0.208-1.037,0.745-1.32,0.786-1.34   c0.063-0.027,0.116-0.068,0.163-0.114c0.181-0.012,0.362-0.025,0.544-0.037c-0.203,0.314-0.39,0.722-0.5,1.271   c-0.072,0.365-0.098,0.633-0.102,0.851c-0.144,0.045-0.287,0.086-0.43,0.131c-0.174,0.055-0.344,0.121-0.518,0.176   C31.725,40.397,31.721,40.072,31.798,39.688z M26.911,36.512c0.592-0.083,1.895-0.092,2.587,0.006v0.86   c-0.317,0.086-0.801,0.189-1.293,0.189c-0.556,0-1.019-0.144-1.294-0.255V36.512z M25.079,39.077   c0.015-0.07,0.056-0.165,0.087-0.201c0.076-0.122,0.244-0.215,0.443-0.349c0.074-0.046,0.152-0.088,0.229-0.132l0.004,0.005   c0.115,0.129,0.212,0.145,0.332,0.201l0.17,0.056c0.225,0.073,0.434,0.13,0.652,0.181c0.43,0.106,0.872,0.198,1.33,0.197   c0.232-0.003,0.528-0.012,0.736-0.04l0.314-0.045c0.195-0.046,0.245-0.068,0.375-0.104c0.223-0.063,0.443-0.125,0.664-0.226   c0.111-0.05,0.219-0.083,0.333-0.15c0.065-0.038,0.127-0.069,0.192-0.108c0.053-0.003,0.105-0.007,0.158-0.012   c-0.164,0.293-0.312,0.654-0.404,1.118c-0.107,0.538-0.1,0.986-0.068,1.306c-1.106-0.397-2.352-0.818-3.228-1.033   c-0.793-0.194-1.591-0.33-2.325-0.415C25.071,39.229,25.068,39.102,25.079,39.077z M23.448,41.716   c0.368,0.167,2.073,0.354,3.835,0.512c-0.752,0.294-1.508,0.578-2.251,0.899l0.021-0.007c-0.368,0.125-0.731,0.275-1.118,0.396   c-0.358,0.105-0.718,0.222-1.073,0.348v-1.882c0-0.216-0.137-0.393-0.326-0.486C22.945,41.564,23.276,41.638,23.448,41.716z    M15.776,42.399c0.541-0.148,1.63-0.389,2.979-0.389c1.213,0,2.389,0.251,2.98,0.401v3.198c-0.577,0.177-1.762,0.487-2.98,0.487   c-1.385,0-2.49-0.435-2.979-0.666V42.399z M42.396,55.534h-0.685c-0.252,0-0.458-0.205-0.458-0.458   c0-0.252,0.206-0.458,0.458-0.458h0.685c0.253,0,0.458,0.205,0.458,0.458C42.854,55.329,42.648,55.534,42.396,55.534z    M50.174,70.536h-4.406v-8.349h0.506h3.9V70.536z M51.898,62.188h0.8H58.1v8.349h-6.201V62.188z M51.836,57.719v3.606h-4.701   v-3.606h0.825h3.051H51.836z M48.822,56.857v-1.692h1.327v1.692H48.822z M57.031,54.619h0.686c0.252,0,0.458,0.205,0.458,0.458   c0,0.253-0.206,0.458-0.458,0.458h-0.686c-0.252,0-0.458-0.205-0.458-0.458C56.573,54.824,56.779,54.619,57.031,54.619z    M56.206,54.071c-0.295,0.242-0.495,0.595-0.495,1.005s0.199,0.763,0.494,1.005h-0.326l-1.596-1.778h-3.272H47.96h-2.725   l-1.597,1.778h-0.417c0.294-0.242,0.493-0.595,0.493-1.005s-0.199-0.763-0.494-1.005H56.206z M85.657,47.377   c-0.052,0.282-0.179,0.542-0.388,0.739c-0.102,0.101-0.225,0.187-0.353,0.271c-0.055,0.028-0.167,0.112-0.175,0.094l-0.236,0.079   c-0.319,0.134-0.619,0.134-0.916,0.19c-0.285,0.06-0.627,0.056-0.941,0.082c-0.32,0.032-0.638,0.028-0.953,0.002l-0.473-0.023   c-0.069-0.005-0.176-0.004-0.215-0.016l-0.245-0.042l-0.979-0.167c-0.646-0.131-1.33-0.178-1.929-0.308l-0.925-0.177l-0.527-0.098   l-0.492-0.062c-0.645-0.098-1.344-0.12-2.025-0.165c-1.384-0.081-2.664-0.124-4.025-0.125l-1.012,0.002l-1.031,0.135   c-0.398,0.065-0.834,0.177-1.26,0.299c-0.14-0.098-0.291-0.205-0.451-0.317c-0.227-0.159-0.453-0.318-0.623-0.437   c-0.028-0.05-0.092-0.044-0.154-0.027c-0.059,0.01-0.109,0.019-0.151,0.025c-0.085,0.015-0.14,0.033-0.14,0.033   s0.002,0.057,0.016,0.143c0.009,0.042,0.018,0.092,0.028,0.151c0.006,0.064,0.021,0.126,0.078,0.136   c0.169,0.119,0.396,0.278,0.622,0.438c0.032,0.022,0.063,0.042,0.094,0.064c-0.025,0.009-0.055,0.016-0.079,0.024l-0.419,0.139   c-0.006-0.003-0.007-0.011-0.014-0.012c-0.17-0.119-0.396-0.278-0.623-0.438c-0.227-0.159-0.453-0.318-0.623-0.437   c-0.028-0.05-0.092-0.044-0.154-0.027c-0.059,0.01-0.109,0.019-0.151,0.025c-0.085,0.015-0.14,0.033-0.14,0.033   s0.002,0.057,0.016,0.143c0.009,0.042,0.018,0.092,0.028,0.15c0.007,0.065,0.021,0.126,0.078,0.136   c0.17,0.119,0.396,0.278,0.622,0.437c0.102,0.071,0.202,0.142,0.299,0.208c-0.105,0.038-0.213,0.076-0.234,0.061   c-0.123,0.005-0.255,0.02-0.375,0.023c-0.002-0.01-0.002-0.015-0.004-0.026c-0.008-0.042-0.018-0.091-0.029-0.149   c-0.007-0.063-0.019-0.129-0.075-0.139c-0.169-0.119-0.396-0.278-0.622-0.438c-0.227-0.159-0.454-0.318-0.623-0.437   c-0.029-0.05-0.092-0.044-0.154-0.027c-0.059,0.01-0.109,0.019-0.152,0.025c-0.084,0.015-0.139,0.033-0.139,0.033   s0.002,0.057,0.016,0.143c0.008,0.042,0.018,0.092,0.028,0.15c0.006,0.065,0.021,0.126,0.077,0.136   c0.17,0.119,0.396,0.278,0.623,0.437c0.135,0.095,0.266,0.187,0.389,0.273c-0.244-0.011-0.49-0.024-0.75-0.039   c-0.012-0.028-0.027-0.049-0.057-0.055c-0.17-0.119-0.396-0.278-0.623-0.437c-0.227-0.16-0.453-0.319-0.623-0.438   c-0.028-0.051-0.092-0.044-0.154-0.027c-0.059,0.01-0.109,0.018-0.151,0.025c-0.085,0.015-0.14,0.033-0.14,0.033   s0.002,0.059,0.016,0.143c0.008,0.042,0.018,0.092,0.028,0.15c0.007,0.065,0.021,0.126,0.077,0.136   c0.154,0.106,0.354,0.247,0.557,0.39c-1.145-0.086-2.294-0.187-3.438-0.301l-0.021-0.002c-0.137-0.013-0.279,0.028-0.391,0.125   c-0.395,0.343-0.664,0.715-0.946,1.083c-0.146,0.197-0.273,0.342-0.435,0.581c-0.107,0.192-0.218,0.369-0.32,0.594   c-0.215,0.447-0.375,0.781-0.579,1.113c-0.218,0.289-0.434,0.549-0.73,0.656l-0.215,0.1l-0.253,0.03   c-0.162,0.033-0.333,0.049-0.57,0.039h-1.309h-2.617h-2.619h-1.309h-0.164h-0.081h-0.04l-0.284-0.039l-0.323-0.045   c-0.059-0.037-0.114-0.069-0.172-0.095c-0.242-0.083-0.498-0.361-0.703-0.645c-0.201-0.326-0.373-0.682-0.571-1.098   c-0.087-0.197-0.221-0.419-0.341-0.631c-0.186-0.264-0.281-0.371-0.426-0.563c-0.266-0.341-0.5-0.686-0.941-1.078   c-0.104-0.09-0.242-0.141-0.389-0.126l-0.024,0.003c-1.288,0.128-2.585,0.247-3.872,0.339c0.221-0.156,0.443-0.312,0.609-0.428   c0.057-0.01,0.072-0.071,0.078-0.136c0.01-0.058,0.02-0.109,0.027-0.15c0.015-0.084,0.017-0.143,0.017-0.143   s-0.056-0.018-0.14-0.033c-0.043-0.008-0.093-0.016-0.15-0.025c-0.064-0.017-0.127-0.024-0.154,0.027   c-0.17,0.119-0.396,0.278-0.624,0.438c-0.226,0.159-0.452,0.318-0.622,0.437c-0.033,0.005-0.049,0.032-0.06,0.064   c-0.255,0.013-0.511,0.03-0.759,0.035c0.125-0.088,0.26-0.182,0.398-0.28c0.227-0.159,0.453-0.318,0.624-0.437   c0.056-0.01,0.071-0.071,0.077-0.136c0.011-0.058,0.021-0.109,0.028-0.15c0.015-0.086,0.016-0.143,0.016-0.143   s-0.055-0.018-0.14-0.033c-0.042-0.007-0.093-0.016-0.15-0.025c-0.063-0.017-0.127-0.023-0.154,0.027   c-0.17,0.119-0.396,0.278-0.623,0.437c-0.227,0.16-0.453,0.319-0.623,0.438c-0.057,0.01-0.068,0.077-0.076,0.139   c-0.011,0.057-0.02,0.104-0.027,0.146c-0.156-0.031-0.322-0.08-0.494-0.137c0.06-0.042,0.117-0.082,0.178-0.125   c0.227-0.159,0.453-0.318,0.623-0.437c0.057-0.01,0.072-0.071,0.078-0.136c0.01-0.058,0.02-0.109,0.027-0.15   c0.015-0.086,0.016-0.143,0.016-0.143s-0.055-0.018-0.139-0.033c-0.042-0.007-0.093-0.016-0.15-0.025   c-0.064-0.017-0.127-0.023-0.154,0.027c-0.171,0.119-0.396,0.278-0.624,0.437c-0.185,0.13-0.362,0.255-0.517,0.363   c-0.057-0.019-0.113-0.04-0.168-0.056c-0.105-0.039-0.225-0.066-0.336-0.101c0.22-0.154,0.438-0.306,0.602-0.422   c0.057-0.01,0.072-0.071,0.078-0.136c0.01-0.059,0.02-0.109,0.027-0.151c0.015-0.085,0.017-0.143,0.017-0.143   s-0.056-0.018-0.14-0.033c-0.041-0.007-0.093-0.016-0.15-0.025c-0.063-0.017-0.127-0.023-0.154,0.027   c-0.171,0.119-0.396,0.278-0.623,0.437c-0.117,0.083-0.233,0.164-0.343,0.241c-0.317-0.08-0.621-0.19-0.963-0.219   c-0.359-0.047-0.69-0.1-1.073-0.138l-0.992-0.002c-1.318,0-2.68,0.046-4.006,0.123c-0.672,0.046-1.309,0.055-2.051,0.168   l-0.539,0.071c-0.108,0.004-0.31,0.057-0.46,0.083l-0.974,0.189c-0.66,0.136-1.281,0.182-1.914,0.309l-0.949,0.164L18.602,48.8   c-0.02,0.013-0.148,0.01-0.217,0.016l-0.496,0.023c-0.336,0.026-0.658,0.028-0.963-0.003c-0.313-0.026-0.63-0.018-0.942-0.084   c-0.306-0.056-0.655-0.083-0.903-0.187c-0.275-0.049-0.566-0.262-0.765-0.446c-0.208-0.198-0.339-0.457-0.39-0.753   c-0.053-0.291,0.007-0.611,0.033-0.945c0.095-0.45,0.352-0.86,0.693-1.205v0.557c0,0.196,0.103,0.38,0.271,0.481   c0.066,0.04,1.629,0.967,3.832,0.967c1.909,0,3.666-0.652,3.74-0.681c0.22-0.083,0.365-0.292,0.365-0.526V43.89   c0.771-0.013,1.53-0.092,2.333-0.206l0.022-0.006c1.518-0.361,3.012-0.794,4.496-1.254c1.117,0.084,1.938,0.137,1.938,0.137   l1.48-0.846c0,0-0.212-0.083-0.555-0.215c0.009-0.003,0.018-0.005,0.026-0.009c0.215-0.075,0.428-0.154,0.642-0.23   c0.024,0.004,0.046,0.022,0.07,0.022c0.073,0,0.146-0.016,0.216-0.048c0.077-0.036,0.141-0.087,0.192-0.145   c2.042-0.738,4.06-1.548,6.02-2.537c-2.007,0.348-3.963,0.847-5.896,1.416c0.012-0.086,0.024-0.169,0.047-0.28   c0.207-1.037,0.745-1.32,0.785-1.34c0.127-0.055,0.218-0.155,0.273-0.27c1.811-0.135,3.619-0.285,5.432-0.469   c0.804-0.089,1.596-0.171,2.424-0.32l0.33-0.07l0.207-0.058l0.182-0.069c0.141-0.063,0.301-0.123,0.477-0.171   c0.348-0.1,0.723-0.177,1.104-0.236c1.53-0.236,3.12-0.309,4.695-0.321c1.575,0,3.166,0.06,4.691,0.293   c0.378,0.063,0.753,0.138,1.092,0.243c0.18,0.055,0.266,0.086,0.475,0.191c0.298,0.14,0.494,0.16,0.712,0.213   c0.831,0.16,1.624,0.243,2.428,0.333c1.847,0.189,3.69,0.335,5.532,0.465c0.057,0.103,0.136,0.192,0.247,0.245   c0.023,0.011,0.577,0.287,0.788,1.341c0.023,0.12,0.039,0.215,0.053,0.307c-1.959-0.58-3.941-1.087-5.975-1.442   c2.039,1.026,4.143,1.864,6.271,2.626c0.01,0.006,0.016,0.016,0.026,0.02c0.024,0.011,0.052,0.009,0.076,0.018   c0.255,0.091,0.51,0.186,0.766,0.274c0.226,0.078,0.456,0.144,0.683,0.221c-0.65,0.245-1.089,0.418-1.089,0.418l1.48,0.846   c0,0,1.327-0.086,2.917-0.213c1.123,0.332,2.253,0.644,3.396,0.916l0.021,0.007c0.793,0.11,1.633,0.204,2.425,0.208   c-0.393-0.141-0.775-0.265-1.15-0.375c-0.376-0.121-0.755-0.274-1.133-0.4l0.021,0.007c-0.456-0.198-0.922-0.366-1.383-0.553   c1.475-0.142,2.773-0.3,3.089-0.442c0.132-0.059,0.36-0.116,0.641-0.171c0,0.009-0.007,0.016-0.007,0.023v4.032   c0,0.234,0.145,0.443,0.363,0.526c0.074,0.028,1.832,0.681,3.741,0.681c2.203,0,3.767-0.928,3.833-0.967   c0.168-0.101,0.271-0.285,0.271-0.481v-0.358c0.252,0.301,0.444,0.638,0.523,1.019C85.649,46.768,85.711,47.037,85.657,47.377z"/><path d="M60.148,43.547c0.021,0.061,0.041,0.112,0.057,0.155c0.033,0.087,0.061,0.14,0.061,0.14s0.055-0.022,0.137-0.067   c0.039-0.023,0.088-0.051,0.143-0.083c0.061-0.028,0.124-0.063,0.122-0.128c0.083-0.225,0.192-0.525,0.302-0.825   c0.109-0.301,0.22-0.601,0.303-0.826c0.044-0.047,0.022-0.113-0.008-0.176c-0.021-0.061-0.041-0.112-0.057-0.156   c-0.033-0.085-0.063-0.139-0.063-0.139s-0.058,0.022-0.139,0.066c-0.04,0.023-0.088,0.05-0.145,0.082   c-0.063,0.029-0.122,0.065-0.119,0.13c-0.082,0.225-0.191,0.525-0.301,0.826c-0.11,0.3-0.221,0.6-0.303,0.825   C60.096,43.418,60.121,43.486,60.148,43.547z"/><path d="M59.233,43.547c0.022,0.061,0.04,0.112,0.056,0.155c0.033,0.087,0.061,0.14,0.061,0.14s0.056-0.022,0.137-0.067   c0.039-0.023,0.088-0.051,0.143-0.083c0.061-0.028,0.125-0.063,0.123-0.128c0.082-0.225,0.191-0.525,0.302-0.825   c0.11-0.301,0.22-0.601,0.302-0.826c0.045-0.047,0.023-0.113-0.006-0.176c-0.022-0.061-0.041-0.112-0.058-0.156   c-0.034-0.085-0.063-0.139-0.063-0.139s-0.057,0.022-0.139,0.066c-0.039,0.023-0.088,0.05-0.143,0.082   c-0.064,0.029-0.123,0.065-0.119,0.13c-0.083,0.225-0.193,0.525-0.303,0.826c-0.109,0.3-0.22,0.6-0.302,0.825   C59.18,43.418,59.206,43.486,59.233,43.547z"/><path d="M58.317,43.547c0.022,0.061,0.04,0.112,0.056,0.155c0.033,0.087,0.062,0.14,0.062,0.14s0.055-0.022,0.136-0.067   c0.039-0.023,0.088-0.051,0.143-0.083c0.062-0.028,0.125-0.063,0.123-0.128c0.082-0.225,0.191-0.525,0.302-0.825   c0.11-0.301,0.22-0.601,0.302-0.826c0.045-0.047,0.023-0.113-0.006-0.176c-0.022-0.061-0.041-0.112-0.058-0.156   c-0.033-0.085-0.063-0.139-0.063-0.139s-0.057,0.022-0.139,0.066c-0.039,0.023-0.088,0.05-0.143,0.082   c-0.063,0.029-0.123,0.065-0.119,0.13c-0.083,0.225-0.193,0.525-0.303,0.826c-0.109,0.3-0.219,0.6-0.302,0.825   C58.264,43.418,58.29,43.486,58.317,43.547z"/><path d="M57.458,43.702c0.034,0.087,0.062,0.14,0.062,0.14s0.055-0.022,0.136-0.067c0.04-0.023,0.088-0.051,0.143-0.083   c0.062-0.028,0.125-0.063,0.122-0.128c0.083-0.225,0.193-0.525,0.303-0.825c0.109-0.301,0.219-0.601,0.302-0.826   c0.044-0.047,0.022-0.113-0.007-0.176c-0.021-0.061-0.041-0.112-0.057-0.156c-0.033-0.085-0.063-0.139-0.063-0.139   s-0.058,0.022-0.139,0.066c-0.04,0.023-0.088,0.05-0.144,0.082c-0.063,0.029-0.122,0.065-0.119,0.13   c-0.082,0.225-0.191,0.525-0.302,0.826c-0.11,0.3-0.22,0.6-0.302,0.825c-0.044,0.047-0.018,0.115,0.01,0.177   C57.424,43.608,57.443,43.66,57.458,43.702z"/><path d="M38.156,42.739c0.11,0.3,0.221,0.6,0.303,0.825c-0.002,0.065,0.061,0.1,0.122,0.128c0.055,0.032,0.103,0.06,0.143,0.083   c0.081,0.045,0.136,0.067,0.136,0.067s0.028-0.053,0.062-0.14c0.016-0.042,0.034-0.094,0.056-0.155   c0.027-0.062,0.054-0.129,0.01-0.177c-0.082-0.225-0.191-0.525-0.301-0.825c-0.11-0.301-0.221-0.601-0.303-0.826   c0.004-0.065-0.055-0.101-0.119-0.13c-0.056-0.032-0.104-0.059-0.143-0.082c-0.082-0.044-0.14-0.066-0.14-0.066   s-0.03,0.054-0.063,0.139c-0.016,0.044-0.035,0.096-0.057,0.156c-0.029,0.063-0.051,0.128-0.007,0.176   C37.938,42.139,38.047,42.438,38.156,42.739z"/><path d="M39.072,42.739c0.109,0.3,0.219,0.6,0.302,0.825c-0.003,0.065,0.062,0.1,0.122,0.128c0.055,0.032,0.104,0.06,0.143,0.083   c0.082,0.045,0.137,0.067,0.137,0.067s0.027-0.053,0.061-0.14c0.016-0.042,0.034-0.094,0.057-0.155   c0.027-0.062,0.053-0.129,0.01-0.177c-0.082-0.225-0.192-0.525-0.303-0.825c-0.109-0.301-0.219-0.601-0.301-0.826   c0.002-0.065-0.057-0.101-0.119-0.13c-0.057-0.032-0.104-0.059-0.145-0.082c-0.081-0.044-0.139-0.066-0.139-0.066   s-0.029,0.054-0.063,0.139c-0.016,0.044-0.035,0.096-0.058,0.156c-0.029,0.063-0.051,0.128-0.007,0.176   C38.853,42.139,38.962,42.438,39.072,42.739z"/><path d="M39.988,42.739c0.109,0.3,0.219,0.6,0.302,0.825c-0.003,0.065,0.062,0.1,0.122,0.128c0.055,0.032,0.104,0.06,0.143,0.083   c0.082,0.045,0.137,0.067,0.137,0.067s0.027-0.053,0.061-0.14c0.016-0.042,0.034-0.094,0.057-0.155   c0.027-0.062,0.053-0.129,0.01-0.177c-0.082-0.225-0.192-0.525-0.303-0.825c-0.109-0.301-0.219-0.601-0.302-0.826   c0.003-0.065-0.056-0.101-0.119-0.13c-0.056-0.032-0.104-0.059-0.144-0.082c-0.082-0.044-0.139-0.066-0.139-0.066   s-0.029,0.054-0.063,0.139c-0.017,0.044-0.035,0.096-0.058,0.156c-0.03,0.063-0.051,0.128-0.007,0.176   C39.768,42.139,39.878,42.438,39.988,42.739z"/><path d="M40.903,42.739c0.11,0.3,0.22,0.6,0.302,0.825c-0.002,0.065,0.062,0.1,0.123,0.128c0.055,0.032,0.103,0.06,0.143,0.083   c0.081,0.045,0.136,0.067,0.136,0.067s0.027-0.053,0.062-0.14c0.016-0.042,0.034-0.094,0.056-0.155   c0.027-0.062,0.054-0.129,0.01-0.177c-0.083-0.225-0.192-0.525-0.302-0.825c-0.109-0.301-0.22-0.601-0.303-0.826   c0.004-0.065-0.055-0.101-0.119-0.13c-0.055-0.032-0.104-0.059-0.143-0.082c-0.082-0.044-0.139-0.066-0.139-0.066   s-0.03,0.054-0.063,0.139c-0.017,0.044-0.035,0.096-0.058,0.156c-0.029,0.063-0.051,0.128-0.006,0.176   C40.684,42.139,40.793,42.438,40.903,42.739z"/><path d="M81.969,47.542c-0.484,0.021-1.02,0.043-1.604,0.067c-0.293,0.035-0.588-0.037-0.904-0.069   c-0.313-0.041-0.64-0.073-0.966-0.158c-1.315-0.271-2.789-0.687-4.418-1.034c-0.817-0.191-1.677-0.274-2.563-0.425   c-0.886-0.137-1.802-0.283-2.751-0.381c-1.896-0.212-3.893-0.481-5.963-0.677c-2.07-0.201-4.205-0.446-6.387-0.603   c-2.176-0.222-4.403-0.243-6.617-0.331c-2.219,0.101-4.451,0.148-6.622,0.363c-2.177,0.157-4.315,0.402-6.386,0.603   c-2.072,0.196-4.065,0.463-5.961,0.676c-0.947,0.098-1.865,0.245-2.754,0.382c-0.885,0.149-1.752,0.235-2.563,0.425   c-1.626,0.347-3.1,0.762-4.42,1.033c-0.327,0.085-0.651,0.116-0.963,0.158c-0.314,0.031-0.608,0.104-0.902,0.069   c-0.584-0.024-1.121-0.047-1.605-0.067c-0.972-0.022-1.729-0.098-2.245-0.156c-0.518-0.052-0.793-0.079-0.793-0.079   s0.275,0.032,0.792,0.091c0.517,0.066,1.274,0.154,2.245,0.191c0.484,0.027,1.021,0.058,1.605,0.091   c0.291,0.041,0.6-0.029,0.912-0.055c0.316-0.036,0.645-0.063,0.974-0.144c1.333-0.251,2.805-0.642,4.433-0.985   c0.811-0.186,1.676-0.266,2.559-0.411c0.885-0.132,1.799-0.273,2.748-0.366c1.895-0.202,3.89-0.459,5.959-0.644   c2.07-0.19,4.205-0.423,6.385-0.568c2.178-0.204,4.385-0.236,6.598-0.328c2.22,0.077,4.433,0.085,6.605,0.295   c2.176,0.145,4.313,0.379,6.383,0.569c2.072,0.185,4.063,0.441,5.957,0.643c0.947,0.092,1.864,0.235,2.752,0.367   c0.883,0.145,1.754,0.226,2.558,0.41c1.627,0.345,3.099,0.733,4.435,0.986c0.332,0.082,0.658,0.108,0.971,0.143   c0.313,0.027,0.619,0.097,0.912,0.056c0.585-0.033,1.122-0.063,1.607-0.091c0.972-0.038,1.729-0.125,2.245-0.191   c0.517-0.059,0.792-0.091,0.792-0.091s-0.275,0.027-0.794,0.079C83.697,47.444,82.938,47.52,81.969,47.542z"/><path d="M18.608,36.421c-0.669,0-1.211,1.275-1.211,2.132h-0.421v0.709h3.371v-0.709H19.82   C19.82,37.696,19.277,36.421,18.608,36.421z"/><path d="M29.48,33.816h-0.398c0-0.649-0.41-1.613-0.918-1.613c-0.506,0-0.916,0.964-0.916,1.613h-0.319v0.536h2.552V33.816z"/><path d="M16.891,39.093c0,0-2.379-0.711-2.941-0.778c-0.563-0.067-3.245-0.145-4.002-0.398c-0.757-0.252-2.941-0.469-2.941-0.469   v0.281c0,0,0.411,0.456,1.535,0.542c1.125,0.085,2.336,0.288,3.407,0.673c1.071,0.386,4.942,1.424,4.942,1.424V39.093z"/><path d="M19.312,36.282c1.276-0.05,3.401-0.4,4.803-0.625s2.751-0.276,2.751-0.276v-1.4c0,0-3.101-0.225-4.527,0   c-1.426,0.225-8.93,1.425-8.93,1.425s0.2,0.55,0.426,0.701C14.059,36.258,18.035,36.332,19.312,36.282z"/><path d="M39.186,33.881c0.898-0.226,1.393-0.5,1.393-0.5s-1.245-0.05-3.547,0c-2.301,0.049-5.228,0.25-5.228,0.25l-2.177,0.25   v1.208c0,0,2.902-0.257,4.229-0.333C35.181,34.681,38.289,34.107,39.186,33.881z"/><path d="M81.103,36.836c-0.669,0-1.212,1.275-1.212,2.132h-0.527v0.709h3.371v-0.709h-0.421   C82.313,38.111,81.771,36.836,81.103,36.836z"/><path d="M72.782,34.232h-0.319c0-0.649-0.41-1.613-0.916-1.613c-0.508,0-0.918,0.964-0.918,1.613H70.23v0.536h2.552V34.232z"/><path d="M89.764,38.333c-0.757,0.252-3.439,0.33-4.002,0.397c-0.563,0.067-2.941,0.778-2.941,0.778v1.275   c0,0,3.871-1.039,4.942-1.424c1.071-0.385,2.282-0.587,3.407-0.673c1.124-0.086,1.535-0.542,1.535-0.542v-0.281   C92.705,37.863,90.521,38.08,89.764,38.333z"/><path d="M40.764,49.963l-2.879,0.17c-0.002,0.014-0.005,0.032-0.009,0.045c-0.013,0.044-0.036,0.128-0.063,0.235h-2.937   c0,0,0.123,0.846,0,1.258c-0.095,0.315-0.662,2.417-0.923,3.384c-0.031,0.1-0.067,0.203-0.096,0.3   c-0.556,1.907-0.076,16.141-0.02,17.757c0.01,0.275,0.216,0.502,0.488,0.538c0.025,0.003,0.049,0.004,0.074,0.004   c0.243,0,0.463-0.158,0.537-0.396l2.273-7.376c0.018-0.054,0.025-0.11,0.025-0.166V56.1l0.729-1.68l0.004,0.001   c0,0,1.924-2.846,2.392-3.409C40.559,50.772,40.684,50.359,40.764,49.963z M36.92,54.005l-0.762,1.754   c-0.03,0.07-0.047,0.147-0.047,0.224v9.648l-1.254,4.069c-0.155-5.683-0.231-12.328,0.042-13.846   c0.261-0.363,1.802-2.515,2.357-3.222C37.1,53.269,36.966,53.817,36.92,54.005z"/><path d="M65.646,55.055c-0.261-0.967-0.828-3.069-0.923-3.384c-0.123-0.412,0-1.258,0-1.258h-2.936   c-0.027-0.106-0.051-0.191-0.064-0.235c-0.004-0.013-0.006-0.031-0.01-0.045l-2.877-0.17c0.08,0.396,0.204,0.81,0.402,1.049   c0.469,0.563,2.393,3.409,2.393,3.409l0.002-0.001l0.73,1.68v9.617c0,0.056,0.008,0.112,0.023,0.166l2.275,7.376   c0.073,0.238,0.293,0.396,0.537,0.396c0.023,0,0.049-0.001,0.074-0.004c0.271-0.036,0.479-0.263,0.487-0.538   c0.057-1.616,0.536-15.851-0.02-17.757C65.713,55.258,65.677,55.155,65.646,55.055z M64.742,69.701l-1.255-4.069v-9.648   c0-0.077-0.017-0.154-0.047-0.224l-0.761-1.754c-0.047-0.188-0.18-0.737-0.338-1.373c0.557,0.707,2.098,2.858,2.357,3.222   C64.973,57.373,64.896,64.018,64.742,69.701z"/><path d="M45.925,66.001h3.884V62.71h-3.884V66.001z M46.57,63.357h2.592v1.998H46.57V63.357z"/><path d="M47.867,66.586c-0.857,0-1.555,0.697-1.555,1.555c0,0.856,0.697,1.554,1.555,1.554s1.555-0.698,1.555-1.554   C49.422,67.283,48.725,66.586,47.867,66.586z M47.867,69.048c-0.501,0-0.908-0.407-0.908-0.907c0-0.501,0.407-0.909,0.908-0.909   c0.5,0,0.908,0.407,0.908,0.909C48.775,68.641,48.367,69.048,47.867,69.048z"/><path d="M54.82,62.71c-1.586,0-2.877,1.291-2.877,2.877c0,1.586,1.291,2.876,2.877,2.876s2.877-1.291,2.877-2.876   C57.697,64,56.406,62.71,54.82,62.71z M54.82,67.817c-1.229,0-2.23-1-2.23-2.23c0-1.229,1.001-2.23,2.23-2.23   c1.23,0,2.23,1,2.23,2.23C57.051,66.817,56.051,67.817,54.82,67.817z"/><path d="M54.82,63.434c-1.188,0-2.152,0.965-2.152,2.153c0,1.187,0.965,2.153,2.152,2.153s2.153-0.966,2.153-2.153   C56.974,64.399,56.008,63.434,54.82,63.434z M54.82,67.093c-0.83,0-1.507-0.675-1.507-1.506s0.677-1.507,1.507-1.507   c0.831,0,1.507,0.676,1.507,1.507S55.651,67.093,54.82,67.093z"/></g></svg>